<svg width="28" height="28" viewBox="0 0 28 28" fill="none" xmlns="http://www.w3.org/2000/svg">
<g id="Group 1000002383">
<circle id="Ellipse 58" cx="14.1561" cy="14.0687" r="13.6813" fill="white"/>
<path id="Vector" d="M14.1561 0.25C6.56603 0.25 0.406006 6.41002 0.406006 14C0.406006 21.5901 6.56603 27.7501 14.1561 27.7501C21.7461 27.7501 27.9061 21.5901 27.9061 14C27.9061 6.41002 21.7461 0.25 14.1561 0.25ZM14.1561 5.75002C16.8098 5.75002 18.9686 7.90878 18.9686 10.5625C18.9686 13.2163 16.8098 15.3751 14.1561 15.3751C11.5023 15.3751 9.34354 13.2163 9.34354 10.5625C9.34354 7.90878 11.5023 5.75002 14.1561 5.75002ZM14.1561 25.0001C11.3648 25.0001 8.06478 23.8726 5.71352 21.0401C8.12199 19.1504 11.0948 18.1234 14.1561 18.1234C17.2173 18.1234 20.1901 19.1504 22.5986 21.0401C20.2473 23.8726 16.9473 25.0001 14.1561 25.0001Z" fill="#0156FF"/>
</g>
</svg>
