<svg width="30" height="30" viewBox="0 0 30 30" fill="none" xmlns="http://www.w3.org/2000/svg">
<path d="M15.0004 0C7.41036 0 1.25034 6.16002 1.25034 13.75C1.25034 21.3401 7.41036 27.5001 15.0004 27.5001C22.5904 27.5001 28.7504 21.3401 28.7504 13.75C28.7504 6.16002 22.5904 0 15.0004 0ZM15.0004 5.50002C17.6541 5.50002 19.8129 7.65878 19.8129 10.3125C19.8129 12.9663 17.6541 15.1251 15.0004 15.1251C12.3466 15.1251 10.1879 12.9663 10.1879 10.3125C10.1879 7.65878 12.3466 5.50002 15.0004 5.50002ZM15.0004 24.7501C12.2091 24.7501 8.90911 23.6226 6.55785 20.7901C8.96632 18.9004 11.9391 17.8734 15.0004 17.8734C18.0617 17.8734 21.0344 18.9004 23.4429 20.7901C21.0917 23.6226 17.7916 24.7501 15.0004 24.7501Z" fill="white"/>
</svg>
