<svg width="128" height="128" viewBox="0 0 128 128" fill="none" xmlns="http://www.w3.org/2000/svg">
<path d="M82.7376 127.605C84.4184 127.605 86.0304 126.934 87.2189 125.738C88.4074 124.543 89.0751 122.921 89.0751 121.23C89.0751 119.54 88.4074 117.918 87.2189 116.723C86.0304 115.527 84.4184 114.855 82.7376 114.855H29.9251C25.4429 114.855 21.1444 113.064 17.975 109.876C14.8056 106.688 13.0251 102.364 13.0251 97.8555V29.8555C13.0251 25.3468 14.8056 21.0228 17.975 17.8347C21.1444 14.6465 25.4429 12.8555 29.9251 12.8555H82.7376C84.4184 12.8555 86.0304 12.1838 87.2189 10.9883C88.4074 9.79273 89.0751 8.17122 89.0751 6.48047C89.0751 4.78971 88.4074 3.16821 87.2189 1.97266C86.0304 0.777118 84.4184 0.105469 82.7376 0.105469H29.9251C22.0813 0.105469 14.5588 3.23983 9.01242 8.81904C3.46603 14.3982 0.350098 21.9653 0.350098 29.8555V97.8555C0.350098 105.746 3.46603 113.313 9.01242 118.892C14.5588 124.471 22.0813 127.605 29.9251 127.605H82.7376ZM91.1115 31.547C91.7229 30.9787 92.4396 30.5371 93.2206 30.2475C94.0017 29.9579 94.8318 29.8259 95.6636 29.859C96.4953 29.8922 97.3125 30.0898 98.0683 30.4407C98.8241 30.7916 99.5038 31.2888 100.069 31.904L125.419 59.529C126.501 60.7069 127.101 62.2517 127.101 63.8555C127.101 65.4592 126.501 67.0041 125.419 68.182L100.069 95.807C98.9267 97.048 97.3416 97.7819 95.6618 97.8473C93.982 97.9126 92.3453 97.3041 91.1115 96.1555C89.8778 95.0069 89.1482 93.4123 89.0833 91.7226C89.0183 90.0329 89.6233 88.3865 90.7651 87.1455L106.296 70.222H40.4876C38.8068 70.222 37.1948 69.5503 36.0063 68.3548C34.8178 67.1592 34.1501 65.5377 34.1501 63.847C34.1501 62.1562 34.8178 60.5347 36.0063 59.3392C37.1948 58.1436 38.8068 57.472 40.4876 57.472H106.288L90.7566 40.5485C90.1917 39.9335 89.7527 39.2126 89.4648 38.4269C89.1769 37.6412 89.0457 36.8062 89.0786 35.9695C89.1116 35.1328 89.3081 34.3109 89.6569 33.5506C90.0057 32.7903 90.5 32.1151 91.1115 31.547Z" fill="#020203"/>
</svg>
