<svg width="73" height="70" viewBox="0 0 73 70" fill="none" xmlns="http://www.w3.org/2000/svg">
<g id="material-symbols:workspace-premium">
<path id="Vector" d="M29.9826 39.9583L32.6076 31.6458L25.7076 26.25H34.2576L36.9576 18.0833L39.6576 26.25H48.2076L41.2326 31.6458L43.8576 39.9583L36.9576 34.7812L29.9826 39.9583ZM18.9576 67.0833V44.5521C17.0576 42.5104 15.5826 40.1771 14.5326 37.5521C13.4826 34.9271 12.9576 32.1319 12.9576 29.1666C12.9576 22.6528 15.2826 17.1354 19.9326 12.6146C24.5826 8.09373 30.2576 5.83331 36.9576 5.83331C43.6576 5.83331 49.3326 8.09373 53.9826 12.6146C58.6326 17.1354 60.9576 22.6528 60.9576 29.1666C60.9576 32.1319 60.4326 34.9271 59.3826 37.5521C58.3326 40.1771 56.8576 42.5104 54.9576 44.5521V67.0833L36.9576 61.25L18.9576 67.0833ZM36.9576 46.6666C41.9576 46.6666 46.2076 44.9653 49.7076 41.5625C53.2076 38.1597 54.9576 34.0278 54.9576 29.1666C54.9576 24.3055 53.2076 20.1736 49.7076 16.7708C46.2076 13.368 41.9576 11.6666 36.9576 11.6666C31.9576 11.6666 27.7076 13.368 24.2076 16.7708C20.7076 20.1736 18.9576 24.3055 18.9576 29.1666C18.9576 34.0278 20.7076 38.1597 24.2076 41.5625C27.7076 44.9653 31.9576 46.6666 36.9576 46.6666Z" fill="#F8F8F8"/>
</g>
</svg>
