<svg width="31" height="32" viewBox="0 0 31 32" fill="none" xmlns="http://www.w3.org/2000/svg">
<g id="Icon/shopping_cart">
<path id="Vector" d="M21.3269 17.1519C22.2726 17.1519 23.1048 16.6349 23.5335 15.8531L28.0476 7.66968C28.5142 6.83747 27.9089 5.80351 26.9506 5.80351H8.28886L7.10359 3.28165H2.98035V5.80351H5.50221L10.0416 15.374L8.3393 18.4506C7.41882 20.1403 8.62931 22.1956 10.5459 22.1956H25.6771V19.6737H10.5459L11.9329 17.1519H21.3269ZM9.48674 8.32536H24.807L21.3269 14.63H12.4751L9.48674 8.32536ZM10.5459 23.4565C9.1589 23.4565 8.03667 24.5914 8.03667 25.9784C8.03667 27.3654 9.1589 28.5002 10.5459 28.5002C11.9329 28.5002 13.0678 27.3654 13.0678 25.9784C13.0678 24.5914 11.9329 23.4565 10.5459 23.4565ZM23.1552 23.4565C21.7682 23.4565 20.646 24.5914 20.646 25.9784C20.646 27.3654 21.7682 28.5002 23.1552 28.5002C24.5422 28.5002 25.6771 27.3654 25.6771 25.9784C25.6771 24.5914 24.5422 23.4565 23.1552 23.4565Z" fill="#2283DC"/>
</g>
</svg>
