<svg width="25" height="27" viewBox="0 0 25 27" fill="none" xmlns="http://www.w3.org/2000/svg">
<path id="Vector" d="M11.4303 20.2257C11.4303 18.8883 11.7951 17.6724 12.2814 16.5782H12.0383C9.72815 16.5782 7.78279 14.6328 7.78279 12.3227C7.78279 10.0126 9.72815 8.06724 12.0383 8.06724C14.3484 8.06724 16.2937 10.0126 16.2937 12.3227C16.2937 12.5659 16.2937 12.809 16.1721 12.9306C17.1448 12.5659 18.1175 12.3227 19.3333 12.3227C19.9413 12.3227 20.5492 12.4443 21.1571 12.5659V12.3227C21.1571 11.958 21.1571 11.4716 21.0355 11.1069L23.5888 9.1615C23.832 8.91833 23.832 8.67516 23.7104 8.43199L21.2787 4.17653C21.1571 3.81177 20.9139 3.81177 20.5492 3.81177L17.5096 5.02762C16.9016 4.54128 16.1721 4.17653 15.4426 3.81177L14.9563 0.528985C15.0779 0.4074 14.7131 0.16423 14.47 0.16423H9.60656C9.36339 0.16423 8.99864 0.4074 8.99864 0.650569L8.5123 3.93336C7.78279 4.17653 7.17487 4.66287 6.44536 5.02762L3.52733 3.81177C3.16257 3.81177 2.9194 3.81177 2.67623 4.17653L0.244537 8.43199C0.122952 8.67516 0.244537 8.91833 0.487706 9.1615L3.04099 11.1069C3.04099 11.4716 2.9194 11.958 2.9194 12.3227C2.9194 12.6875 2.9194 13.1738 3.04099 13.5386L0.487706 15.6055C0.244537 15.8487 0.244537 16.0918 0.366122 16.335L2.79782 20.5905C2.9194 20.8336 3.16257 20.8336 3.52733 20.8336L6.56694 19.6178C7.17487 20.1041 7.90438 20.4689 8.63388 20.8336L9.12022 24.1164C9.12022 24.3596 9.36339 24.6028 9.72815 24.6028H12.7678C11.9167 23.2653 11.4303 21.8063 11.4303 20.2257ZM19.3333 15.3623V13.5386L16.6585 16.2134L19.3333 18.8883V17.1861C21.0355 17.1861 22.373 18.5235 22.373 20.2257C22.373 20.7121 22.2514 21.1984 22.0082 21.5631L23.3456 22.9006C24.8047 20.7121 24.1967 17.6724 22.0082 16.2134C21.2787 15.6055 20.306 15.3623 19.3333 15.3623ZM19.3333 23.2653C17.6312 23.2653 16.2937 21.9279 16.2937 20.2257C16.2937 19.7394 16.4153 19.253 16.6585 18.8883L15.321 17.5508C13.862 19.7394 14.47 22.779 16.6585 24.238C17.5096 24.7243 18.3607 25.0891 19.3333 25.0891V26.9129L22.0082 24.238L19.3333 21.4416V23.2653Z" fill="#1E1E1E"/>
</svg>
