<svg width="25" height="25" viewBox="0 0 25 25" fill="none" xmlns="http://www.w3.org/2000/svg">
<g id="mdi:car-hatchback">
<path id="Vector" d="M16.1221 6.30005H6.12207L1.12207 12.3V15.3H3.12207C3.12207 16.0957 3.43814 16.8588 4.00075 17.4214C4.56336 17.984 5.32642 18.3 6.12207 18.3C6.91772 18.3 7.68078 17.984 8.24339 17.4214C8.806 16.8588 9.12207 16.0957 9.12207 15.3H15.1221C15.1221 16.0957 15.4381 16.8588 16.0007 17.4214C16.5634 17.984 17.3264 18.3 18.1221 18.3C18.9177 18.3 19.6808 17.984 20.2434 17.4214C20.806 16.8588 21.1221 16.0957 21.1221 15.3H23.1221V12.3C23.1221 11.19 22.2321 10.3 21.1221 10.3H19.1221L16.1221 6.30005ZM6.62207 7.80005H10.6221V10.3H4.62207L6.62207 7.80005ZM12.1221 7.80005H15.6221L17.5821 10.3H12.1221V7.80005ZM6.12207 13.8C6.5199 13.8 6.90143 13.9581 7.18273 14.2394C7.46404 14.5207 7.62207 14.9022 7.62207 15.3C7.62207 15.6979 7.46404 16.0794 7.18273 16.3607C6.90143 16.642 6.5199 16.8 6.12207 16.8C5.72425 16.8 5.34271 16.642 5.06141 16.3607C4.78011 16.0794 4.62207 15.6979 4.62207 15.3C4.62207 14.9022 4.78011 14.5207 5.06141 14.2394C5.34271 13.9581 5.72425 13.8 6.12207 13.8ZM18.1221 13.8C18.5199 13.8 18.9014 13.9581 19.1827 14.2394C19.464 14.5207 19.6221 14.9022 19.6221 15.3C19.6221 15.6979 19.464 16.0794 19.1827 16.3607C18.9014 16.642 18.5199 16.8 18.1221 16.8C17.7242 16.8 17.3427 16.642 17.0614 16.3607C16.7801 16.0794 16.6221 15.6979 16.6221 15.3C16.6221 14.9022 16.7801 14.5207 17.0614 14.2394C17.3427 13.9581 17.7242 13.8 18.1221 13.8Z" fill="#1E1E1E"/>
</g>
</svg>
