<svg width="48" height="48" viewBox="0 0 48 48" fill="none" xmlns="http://www.w3.org/2000/svg">
<mask id="mask0_1916_363" style="mask-type:luminance" maskUnits="userSpaceOnUse" x="5" y="2" width="39" height="44">
<path d="M13 33L7 4C7 4 17.5 6 17.5 10C17.5 12.5 13.5 14 15 15.5C16.5 17 22 18.5 22 22.5C22 25 20.36 26.86 22 28.5C23.5 30 25 29.214 27.5 28.5C30.3 27.7 36 27 38 27.5C40 28 42 29 42 32C42 33.65 41 35.5 38.5 36C36 36.5 33 34 29 34C25 34 20 37 17 37C14 37 13 33 13 33Z" fill="white" stroke="white" stroke-width="4" stroke-linejoin="round"/>
<path d="M38 36L41 44H8L14 36" stroke="white" stroke-width="4" stroke-linejoin="round"/>
</mask>
<g mask="url(#mask0_1916_363)">
<path d="M49 0H1V48H49V0Z" fill="#282728"/>
</g>
</svg>
