<svg width="22" height="21" viewBox="0 0 22 21" fill="none" xmlns="http://www.w3.org/2000/svg">
<g id="cart">
<g id="Group 65">
<g id="Vector">
<path d="M13.3569 18.0001C13.8637 18.0001 13.9985 17.3645 14.3569 17.0001C14.7152 16.6357 15.3569 16.5155 15.3569 16.0001C15.3569 15.4847 14.7152 15.3645 14.3569 15.0001C13.9985 14.6357 13.8637 14.0001 13.3569 14.0001C12.8501 14.0001 12.7152 14.6357 12.3569 15.0001C11.9985 15.3645 11.3569 15.4847 11.3569 16.0001C11.3569 16.5155 11.9985 16.6357 12.3569 17.0001C12.7152 17.3645 12.8501 18.0001 13.3569 18.0001ZM6.35689 18.0001C6.86366 18.0001 6.99855 17.3645 7.35689 17.0001C7.71523 16.6357 8.35689 16.5155 8.35689 16.0001C8.35689 15.4847 7.71523 15.3645 7.35689 15.0001C6.99855 14.6357 6.86366 14.0001 6.35689 14.0001C5.85012 14.0001 5.71523 14.6357 5.35689 15.0001C4.99855 15.3645 4.35689 15.4847 4.35689 16.0001C4.35689 16.5155 4.99855 16.6357 5.35689 17.0001C5.71523 17.3645 5.85012 18.0001 6.35689 18.0001ZM19.3569 4.00009C19.5954 3.99227 20.1909 4.17443 20.3569 4.00009C20.5229 3.82575 20.3569 3.24276 20.3569 3.00009C20.3569 2.75742 20.5229 2.17443 20.3569 2.00009C20.1909 1.82575 19.5954 2.00791 19.3569 2.00009H18.3569C17.4951 2.00009 16.5441 3.1451 16.3569 4.00009L15.3569 9.00009C15.1696 9.85508 14.2187 11.0001 13.3569 11.0001H5.35689L4.35689 5.00009H13.3569C13.5931 4.98913 14.1935 5.17399 14.3569 5.00009C14.5203 4.82619 14.3569 4.2406 14.3569 4.00009C14.3569 3.75958 14.5203 3.17399 14.3569 3.00009C14.1935 2.82619 13.5931 3.01105 13.3569 3.00009H4.35689C4.07759 3.00001 3.60792 2.87558 3.35689 3.00009C3.10586 3.1246 2.52877 3.77622 2.35689 4.00009C2.41478 3.72223 2.18501 4.22396 2.35689 4.00009C2.299 4.27795 2.28906 4.72457 2.35689 5.00009L4.35689 11.0001C4.45621 11.4045 4.03385 11.7436 4.35689 12.0001C4.67993 12.2566 4.94704 13.0002 5.35689 13.0001H13.3569C14.1931 13.0002 14.7046 12.5322 15.3569 12.0001C16.0091 11.468 17.1756 10.8302 17.3569 10.0001L18.3569 4.00009H19.3569Z" fill="white"/>
</g>
</g>
</g>
</svg>
