<svg width="25" height="25" viewBox="0 0 25 25" fill="none" xmlns="http://www.w3.org/2000/svg">
<g id="cart">
<g id="Group 65">
<path id="Vector" d="M14.9004 21.1374C15.5104 21.1374 16.0955 20.895 16.5269 20.4636C16.9583 20.0322 17.2006 19.4472 17.2006 18.8371C17.2006 18.227 16.9583 17.6419 16.5269 17.2105C16.0955 16.7792 15.5104 16.5368 14.9004 16.5368C14.2903 16.5368 13.7052 16.7792 13.2738 17.2105C12.8424 17.6419 12.6001 18.227 12.6001 18.8371C12.6001 19.4472 12.8424 20.0322 13.2738 20.4636C13.7052 20.895 14.2903 21.1374 14.9004 21.1374ZM6.84937 21.1374C7.45944 21.1374 8.04453 20.895 8.47591 20.4636C8.9073 20.0322 9.14965 19.4472 9.14965 18.8371C9.14965 18.227 8.9073 17.6419 8.47591 17.2105C8.04453 16.7792 7.45944 16.5368 6.84937 16.5368C6.2393 16.5368 5.65421 16.7792 5.22282 17.2105C4.79144 17.6419 4.54909 18.227 4.54909 18.8371C4.54909 19.4472 4.79144 20.0322 5.22282 20.4636C5.65421 20.895 6.2393 21.1374 6.84937 21.1374ZM21.8449 4.94683C22.132 4.93757 22.4043 4.817 22.6041 4.61062C22.804 4.40424 22.9157 4.12824 22.9157 3.84097C22.9157 3.5537 22.804 3.27769 22.6041 3.07131C22.4043 2.86494 22.132 2.74437 21.8449 2.73511H20.5211C19.4837 2.73511 18.5866 3.4551 18.3611 4.46722L16.92 10.9563C16.6946 11.9684 15.7975 12.6884 14.76 12.6884H6.12018L4.46168 6.05211H15.2097C15.4942 6.03914 15.7626 5.91702 15.9593 5.71116C16.156 5.5053 16.2657 5.23154 16.2657 4.94683C16.2657 4.66212 16.156 4.38836 15.9593 4.1825C15.7626 3.97664 15.4942 3.85452 15.2097 3.84154H4.46168C4.12545 3.84144 3.79363 3.918 3.49143 4.0654C3.18924 4.2128 2.92463 4.42715 2.71771 4.69217C2.5108 4.95719 2.36703 5.26589 2.29734 5.59481C2.22764 5.92374 2.23386 6.26422 2.31551 6.59038L3.97401 13.2244C4.09358 13.7031 4.36977 14.128 4.75865 14.4317C5.14754 14.7353 5.62679 14.9002 6.12018 14.9002H14.76C15.7667 14.9003 16.7432 14.5571 17.5284 13.9272C18.3136 13.2974 18.8605 12.4186 19.0788 11.4359L20.5211 4.94683H21.8449Z" fill="#1E1E1E"/>
</g>
</g>
</svg>
