<svg width="20" height="23" viewBox="0 0 20 23" fill="none" xmlns="http://www.w3.org/2000/svg">
<g id="eva:search-outline">
<path id="Vector" d="M17.2583 17.9207L14.425 14.8844C15.3392 13.6327 15.8352 12.087 15.8333 10.4958C15.8333 9.07862 15.4423 7.6933 14.7098 6.51499C13.9773 5.33668 12.9361 4.4183 11.7179 3.87599C10.4997 3.33367 9.15927 3.19178 7.86607 3.46825C6.57286 3.74472 5.38497 4.42714 4.45262 5.4292C3.52027 6.43127 2.88534 7.70799 2.6281 9.0979C2.37087 10.4878 2.50289 11.9285 3.00747 13.2378C3.51206 14.547 4.36654 15.6661 5.46287 16.4534C6.5592 17.2407 7.84813 17.6609 9.16667 17.6609C10.6472 17.6629 12.0854 17.1298 13.25 16.1473L16.075 19.1925C16.1525 19.2765 16.2446 19.3431 16.3462 19.3886C16.4477 19.434 16.5567 19.4574 16.6667 19.4574C16.7767 19.4574 16.8856 19.434 16.9872 19.3886C17.0887 19.3431 17.1809 19.2765 17.2583 19.1925C17.3364 19.1092 17.3984 19.0102 17.4407 18.901C17.4831 18.7919 17.5048 18.6748 17.5048 18.5566C17.5048 18.4384 17.4831 18.3213 17.4407 18.2122C17.3984 18.103 17.3364 18.0039 17.2583 17.9207ZM4.16667 10.4958C4.16667 9.4329 4.45991 8.39392 5.00932 7.51018C5.55873 6.62645 6.33962 5.93767 7.25325 5.53093C8.16688 5.12419 9.17222 5.01777 10.1421 5.22512C11.112 5.43248 12.0029 5.94429 12.7022 6.69584C13.4015 7.4474 13.8777 8.40493 14.0706 9.44736C14.2635 10.4898 14.1645 11.5703 13.7861 12.5523C13.4076 13.5342 12.7668 14.3735 11.9445 14.964C11.1223 15.5545 10.1556 15.8696 9.16667 15.8696C7.84059 15.8696 6.56882 15.3035 5.63114 14.2957C4.69345 13.2879 4.16667 11.921 4.16667 10.4958Z" fill="white"/>
</g>
</svg>
