<svg width="27" height="28" viewBox="0 0 27 28" fill="none" xmlns="http://www.w3.org/2000/svg">
<g clip-path="url(#clip0_608_6977)">
<path fill-rule="evenodd" clip-rule="evenodd" d="M15.3317 8.77686C15.3317 11.2621 13.3916 13.2769 10.9984 13.2769C8.60513 13.2769 6.66503 11.2621 6.66503 8.77686C6.66503 6.29157 8.60513 4.27686 10.9984 4.27686C13.3916 4.27686 15.3317 6.29157 15.3317 8.77686ZM13.165 8.77686C13.165 10.0195 12.195 11.0269 10.9984 11.0269C9.80174 11.0269 8.8317 10.0195 8.8317 8.77686C8.8317 7.53421 9.80174 6.52686 10.9984 6.52686C12.195 6.52686 13.165 7.53421 13.165 8.77686Z" fill="#E31E24"/>
<path fill-rule="evenodd" clip-rule="evenodd" d="M19.665 20.2143C19.665 19.7268 19.5179 19.2477 19.2117 18.8782C17.225 16.4818 14.2823 14.9644 10.9984 14.9644C7.71441 14.9644 4.77174 16.4818 2.78504 18.8782C2.47877 19.2477 2.3317 19.7268 2.3317 20.2143V22.2769C2.3317 23.5195 3.30174 24.5269 4.49836 24.5269H17.4984C18.695 24.5269 19.665 23.5195 19.665 22.2769V20.2143ZM17.4984 20.2612C15.9073 18.3894 13.5861 17.2144 10.9984 17.2144C8.41063 17.2144 6.08948 18.3894 4.49836 20.2612V22.2769H17.4984V20.2612Z" fill="#E31E24"/>
<path d="M21.8317 15.5269C21.2334 15.5269 20.7484 15.0232 20.7484 14.4019V12.1519H18.5817C17.9834 12.1519 17.4984 11.6482 17.4984 11.0269C17.4984 10.4055 17.9834 9.90186 18.5817 9.90186H20.7484V7.65186C20.7484 7.03054 21.2334 6.52686 21.8317 6.52686C22.43 6.52686 22.915 7.03054 22.915 7.65186V9.90186H25.0817C25.68 9.90186 26.165 10.4055 26.165 11.0269C26.165 11.6482 25.68 12.1519 25.0817 12.1519H22.915V14.4019C22.915 15.0232 22.43 15.5269 21.8317 15.5269Z" fill="#E31E24"/>
</g>
<defs>
<clipPath id="clip0_608_6977">
<rect width="26" height="27" fill="white" transform="translate(0.165039 0.901855)"/>
</clipPath>
</defs>
</svg>
