<svg width="35" height="36" viewBox="0 0 35 36" fill="none" xmlns="http://www.w3.org/2000/svg">
<g id="bx:bx-time">
<path id="Vector" d="M17 17.2725C15.625 17.2725 14.5 16.1925 14.5 14.8725C14.5 13.5525 15.625 12.4725 17 12.4725C18.375 12.4725 19.5 13.5525 19.5 14.8725C19.5 16.1925 18.375 17.2725 17 17.2725ZM24.5 15.1125C24.5 10.7565 21.1875 7.67246 17 7.67246C12.8125 7.67246 9.5 10.7565 9.5 15.1125C9.5 17.9205 11.9375 21.6405 17 26.0805C22.0625 21.6405 24.5 17.9205 24.5 15.1125ZM17 5.27246C22.25 5.27246 27 9.13646 27 15.1125C27 19.0965 23.6625 23.8125 17 29.2725C10.3375 23.8125 7 19.0965 7 15.1125C7 9.13646 11.75 5.27246 17 5.27246Z" fill="#1E1E1E"/>
</g>
</svg>
