<svg width="35" height="36" viewBox="0 0 35 36" fill="none" xmlns="http://www.w3.org/2000/svg">
<g id="bx:bx-time">
<path id="Vector" d="M17.5 29.1225C11.2429 29.1225 6.15 24.0295 6.15 17.7725C6.15 11.5154 11.2429 6.42246 17.5 6.42246C23.7571 6.42246 28.85 11.5154 28.85 17.7725C28.85 24.0295 23.7571 29.1225 17.5 29.1225Z" stroke="#1E1E1E" stroke-width="2.3"/>
<path id="Vector_2" d="M18.6671 20.3794L19.5282 19.5179C19.6442 19.4034 19.7909 19.3249 19.9506 19.2922C20.1103 19.2594 20.276 19.2737 20.4277 19.3334L21.4772 19.7525C21.6305 19.8148 21.762 19.9211 21.855 20.0579C21.948 20.1948 21.9985 20.3562 22 20.5217V22.4446C21.9991 22.5571 21.9754 22.6684 21.9304 22.7716C21.8854 22.8748 21.82 22.9678 21.7381 23.0451C21.6563 23.1223 21.5596 23.1822 21.454 23.2211C21.3483 23.26 21.2359 23.2771 21.1235 23.2714C13.7696 22.8137 12.2857 16.5837 12.0051 14.1993C11.9921 14.0822 12.004 13.9637 12.04 13.8515C12.0761 13.7394 12.1355 13.6361 12.2143 13.5486C12.2931 13.461 12.3895 13.3912 12.4972 13.3436C12.605 13.296 12.7215 13.2718 12.8393 13.2725H14.696C14.8617 13.273 15.0235 13.323 15.1605 13.4162C15.2975 13.5094 15.4035 13.6415 15.4649 13.7955L15.8839 14.8454C15.9455 14.9965 15.9612 15.1625 15.9291 15.3226C15.897 15.4826 15.8184 15.6296 15.7032 15.7453L14.8421 16.6067C14.8421 16.6067 15.338 19.9641 18.6671 20.3794Z" fill="#1E1E1E"/>
</g>
</svg>
